<?xml version="1.0" encoding="UTF-8" standalone="no"?>
<!-- Generator: Adobe Illustrator 15.0.2, SVG Export Plug-In . SVG Version: 6.00 Build 0)  -->

<svg
   xmlns:dc="http://purl.org/dc/elements/1.1/"
   xmlns:cc="http://creativecommons.org/ns#"
   xmlns:rdf="http://www.w3.org/1999/02/22-rdf-syntax-ns#"
   xmlns:svg="http://www.w3.org/2000/svg"
   xmlns="http://www.w3.org/2000/svg"
   xmlns:sodipodi="http://sodipodi.sourceforge.net/DTD/sodipodi-0.dtd"
   xmlns:inkscape="http://www.inkscape.org/namespaces/inkscape"
   version="1.1"
   id="Layer_1"
   x="0px"
   y="0px"
   width="700"
   height="700"
   viewBox="0 0 699.99999 699.99997"
   enable-background="new 0 0 841.89 595.28"
   xml:space="preserve"
   inkscape:version="0.91 r13725"
   sodipodi:docname="PICTURETHAT_LOGO_FINALFINALFINAL.svg"><metadata
     id="metadata4195"><rdf:RDF><cc:Work
         rdf:about=""><dc:format>image/svg+xml</dc:format><dc:type
           rdf:resource="http://purl.org/dc/dcmitype/StillImage" /><dc:title></dc:title></cc:Work></rdf:RDF></metadata><defs
     id="defs4193"><defs
       id="defs4139"><rect
         height="595.28003"
         width="841.89001"
         id="SVGID_1_"
         x="0"
         y="0" /></defs></defs><sodipodi:namedview
     pagecolor="#ffffff"
     bordercolor="#666666"
     borderopacity="1"
     objecttolerance="10"
     gridtolerance="10"
     guidetolerance="10"
     inkscape:pageopacity="0"
     inkscape:pageshadow="2"
     inkscape:window-width="1920"
     inkscape:window-height="1017"
     id="namedview4191"
     showgrid="false"
     inkscape:snap-page="true"
     inkscape:snap-intersection-paths="true"
     inkscape:object-paths="true"
     inkscape:snap-bbox="true"
     inkscape:bbox-paths="true"
     inkscape:bbox-nodes="true"
     inkscape:snap-bbox-edge-midpoints="true"
     inkscape:snap-bbox-midpoints="true"
     inkscape:object-nodes="true"
     inkscape:snap-smooth-nodes="true"
     inkscape:snap-midpoints="true"
     inkscape:zoom="0.99423523"
     inkscape:cx="420.94501"
     inkscape:cy="297.64001"
     inkscape:window-x="-8"
     inkscape:window-y="-8"
     inkscape:window-maximized="1"
     inkscape:current-layer="Layer_1" /><path
     style="fill:#005baa"
     inkscape:connector-curvature="0"
     id="path4147"
     d="m 349.92239,573.8702 c 0,3.04605 -1.08649,5.66042 -3.24491,7.8625 -2.15843,2.19723 -4.8019,3.30797 -7.91586,3.30797 -3.10425,0 -5.74287,-1.09134 -7.911,-3.24976 -2.16813,-2.15843 -3.24492,-4.8019 -3.24492,-7.92071 0,-3.1091 1.10104,-5.75742 3.30313,-7.9692 2.20208,-2.19723 4.81644,-3.29828 7.85279,-3.29828 3.03635,0 5.66042,1.1156 7.8625,3.35163 2.19723,2.24574 3.29827,4.88435 3.29827,7.91585"
     clip-path="none" /><path
     inkscape:connector-curvature="0"
     id="path4167"
     d="M 700,700 0,700 0,0 l 699.99515,0 0,700 z m -668.195928,-31.80407 636.391858,0 0,-636.391858 -636.391858,0 0,636.391858 z"
     clip-path="none" /><path
     inkscape:connector-curvature="0"
     id="path4169"
     d="m 356.13576,573.37546 c 0,3.92398 -1.39692,7.295 -4.18105,10.12764 -2.78898,2.84233 -6.18911,4.2635 -10.20039,4.2635 -4.01128,0 -7.40656,-1.40177 -10.19554,-4.1859 -2.79383,-2.78413 -4.18104,-6.18426 -4.18104,-10.20524 0,-4.00643 1.41631,-7.42596 4.2538,-10.26829 2.83748,-2.83264 6.21336,-4.2538 10.12278,-4.2538 3.91427,0 7.29015,1.45027 10.12764,4.3314 2.83263,2.89084 4.2538,6.29097 4.2538,10.19069"
     clip-path="none" /><path
     inkscape:connector-curvature="0"
     id="path4171"
     d="m 123.18075,212.42811 -20.55599,0 0,-84.11563 21.43877,0 c 10.71938,0 17.40323,2.01776 22.95209,7.06218 5.67497,4.9183 8.95384,12.73715 8.95384,20.80821 0,8.19718 -3.27887,15.88991 -8.82773,21.06044 -5.54886,5.04442 -12.35882,7.19314 -23.0782,7.19314 l -0.88278,0 0,27.99166 z m 1.89166,-46.78696 c 8.07106,0 11.09771,-2.5222 11.09771,-9.33217 0,-6.68385 -3.02665,-9.20605 -11.09771,-9.20605 l -2.01777,0 0,18.53822 2.01777,0 z"
     clip-path="none" /><rect
     id="rect4173"
     height="84.120483"
     width="20.555994"
     clip-path="none"
     y="128.30759"
     x="175.87549" /><path
     inkscape:connector-curvature="0"
     id="path4175"
     d="m 280.02328,156.30898 c -6.80996,-7.94495 -12.73715,-11.22382 -20.05155,-11.22382 -13.74603,0 -24.59638,11.09771 -24.59638,25.22208 0,14.12436 10.97646,25.34819 24.59638,25.34819 7.44051,0 13.49381,-3.40498 20.42988,-11.47605 l 14.62881,13.49381 c -10.97161,11.85438 -21.56488,17.02976 -34.68036,17.02976 -25.22208,0 -45.52585,-19.80418 -45.52585,-44.2696 0,-24.59153 20.30377,-44.39086 45.65196,-44.39086 12.98937,0 23.20431,5.04442 34.17592,16.77268 l -14.62881,13.49381 z"
     clip-path="none" /><polygon
     id="polygon4177"
     points="414.298,225.692 414.298,221.767 428.157,221.767 428.157,225.692 423.36,225.692 423.36,239.109 419.123,239.109 419.123,225.692 "
     clip-path="none"
     transform="matrix(4.8503998,0,0,4.8503998,-1702.0441,-947.34614)" /><path
     inkscape:connector-curvature="0"
     id="path4179"
     d="m 412.86118,179.63941 c 0,6.43163 0.37833,8.95384 1.63944,10.9716 1.89165,2.90054 6.55774,5.04442 10.84549,5.04442 4.41386,0 9.07995,-2.14388 10.97161,-5.04442 1.26595,-2.01776 1.63943,-4.53997 1.63943,-10.9716 l 0,-51.33178 20.55599,0 0,53.47565 c 0,9.20606 -1.8965,15.25936 -6.30552,20.68211 -6.1794,7.69273 -16.26824,12.23756 -26.7354,12.23756 -10.59812,0 -20.81306,-4.67094 -26.86636,-12.23756 -4.53998,-5.42275 -6.30552,-11.47605 -6.30552,-20.68211 l 0,-53.47565 20.55599,0 0,51.33178 z"
     clip-path="none" /><path
     inkscape:connector-curvature="0"
     id="path4181"
     d="m 507.01229,184.30549 -0.50444,0 -3.15276,0.13096 -0.88277,0 0,27.99166 -20.556,0 0,-84.11563 21.43877,0 c 11.35479,0 18.29086,2.01776 24.2132,7.06218 6.0533,5.17052 9.58924,12.98937 9.58924,21.31266 0,8.44939 -3.91428,16.64657 -10.34106,21.56487 l 19.16878,34.17592 -23.08305,0 -15.63769,-28.12262 -0.25222,0 z m -2.64347,-18.66434 c 9.20606,0 12.99423,-2.5222 12.99423,-8.95383 0,-6.80997 -3.78332,-9.58439 -12.99423,-9.58439 l -2.01776,0 0,18.53822 2.01776,0 z"
     clip-path="none" /><polygon
     id="polygon4183"
     points="477.183,225.641 470.917,225.641 470.917,228.397 476.48,228.397 476.48,232.297 470.917,232.297 470.917,235.183 477.417,235.183 477.417,239.109 466.73,239.109 466.73,221.766 477.183,221.766 "
     clip-path="none"
     transform="matrix(4.8503998,0,0,4.8503998,-1702.0441,-947.34614)" /><polygon
     id="polygon4185"
     points="418.537,249.58 423.919,249.58 423.919,242.976 428.157,242.976 428.157,260.318 423.919,260.318 423.919,253.506 418.537,253.506 418.537,260.318 414.299,260.318 414.299,242.976 418.537,242.976 "
     clip-path="none"
     transform="matrix(4.8503998,0,0,4.8503998,-1702.0441,-947.34614)" /><path
     inkscape:connector-curvature="0"
     id="path4187"
     d="m 325.82076,402.9809 -5.92719,17.40323 -21.69099,0 31.40149,-84.11563 22.95694,0 31.39664,84.11563 -21.8171,0 -5.92234,-17.40323 -30.39745,0 z m 15.25935,-44.64793 -8.69676,25.60041 17.39838,0 -8.70162,-25.60041 z"
     clip-path="none" /><polygon
     id="polygon4189"
     points="414.298,291.052 414.298,287.126 428.157,287.126 428.157,291.052 423.36,291.052 423.36,304.469 419.123,304.469 419.123,291.052 "
     clip-path="none"
     transform="matrix(4.8503998,0,0,4.8503998,-1702.0441,-947.34614)" /></svg>